<?xml version="1.0" standalone="no"?><!DOCTYPE svg PUBLIC "-//W3C//DTD SVG 1.1//EN" "http://www.w3.org/Graphics/SVG/1.1/DTD/svg11.dtd"><svg t="1725253768834" class="icon" viewBox="0 0 1024 1024" version="1.1" xmlns="http://www.w3.org/2000/svg" p-id="4403" xmlns:xlink="http://www.w3.org/1999/xlink" width="200" height="200"><path d="M0 0h1024v1024H0V0z m940.128 779.776c-7.456-46.72-37.888-85.984-128.128-122.592-31.392-14.72-66.304-24.96-76.672-48.64-3.872-14.08-4.48-21.76-1.952-30.08 6.4-27.552 39.04-35.84 64.64-28.16 16.64 5.12 32 17.92 41.632 38.4 44.128-28.832 44.128-28.832 74.88-48-11.52-17.92-17.248-25.632-24.992-33.28-26.88-30.08-62.688-45.44-120.928-44.128l-30.08 3.808c-28.832 7.04-56.32 22.4-72.96 42.88-48.64 55.072-34.592 151.072 24.288 190.752 58.24 43.52 143.392 53.088 154.272 94.08 10.24 49.92-37.12 65.92-83.872 60.16-34.592-7.68-53.76-24.992-74.88-56.992l-78.08 44.832c8.96 20.48 19.2 29.408 34.56 47.328 74.24 74.912 259.84 71.072 293.152-42.848 1.248-3.84 10.24-30.08 3.168-70.4l1.952 2.848z m-383.296-309.12h-95.904c0 82.688-0.384 164.864-0.384 247.68 0 52.576 2.688 100.832-5.888 115.68-14.08 29.408-50.336 25.632-66.816 20.48-16.896-8.352-25.472-19.872-35.424-36.48-2.688-4.48-4.704-8.352-5.408-8.352l-77.856 48c13.024 26.88 32 50.016 56.48 64.736 36.48 21.76 85.504 28.8 136.832 17.28 33.408-9.632 62.208-29.472 77.28-60.192 21.76-39.68 17.152-88.32 16.928-142.752 0.512-87.648 0-175.328 0-263.648l0.16-2.4z" fill="#F7DF1E" p-id="4404"></path></svg>

