<?xml version="1.0" standalone="no"?><!DOCTYPE svg PUBLIC "-//W3C//DTD SVG 1.1//EN" "http://www.w3.org/Graphics/SVG/1.1/DTD/svg11.dtd"><svg t="1725182160964" class="icon" viewBox="0 0 1024 1024" version="1.1" xmlns="http://www.w3.org/2000/svg" p-id="9524" xmlns:xlink="http://www.w3.org/1999/xlink" width="200" height="200"><path d="M1012.509339 524.867166c-11.570539 7.461567-23.422165 14.493838-35.074475 21.83786a11.984503 11.984503 0 0 0-2.074929 19.839591c9.970902 9.546717 20.248444 18.771463 30.188682 28.353954 10.895932 10.512632 8.775007 21.781643-5.258872 27.398261-12.454684 4.982896-25.124016 9.439393-37.691134 14.151424-10.190661 3.822775-12.623336 12.04072-6.189012 21.050818 7.236698 10.124222 14.570498 20.182005 21.791864 30.311338 10.614846 14.882249 6.449656 25.113795-11.708527 28.39484-12.26559 2.212917-24.566954 3.914767-36.796769 6.09702-11.621646 2.069818-15.040679 9.010098-10.073115 20.013354 5.253761 11.621646 10.732391 23.1513 15.843053 34.818942 6.531426 14.820921-0.168652 24.582286-16.425669 24.081441-13.461485-0.419074-26.912748-1.109014-40.374232-1.410543a11.790298 11.790298 0 0 0-12.521123 15.372872c2.964184 13.103738 6.09702 26.176812 8.999877 39.295883 3.55191 16.037258-4.384948 24.112105-20.141121 20.590858-13.108849-2.93352-26.192144-5.994807-39.300993-8.943659a11.820962 11.820962 0 0 0-15.653958 13.052631c0.275976 12.454684 0.664386 24.909368 1.247001 37.353831 0.884145 18.837901-8.739233 25.665746-25.670857 18.004864-11.616535-5.253761-23.181964-10.614846-34.834274-15.791947a12.030499 12.030499 0 0 0-18.112187 9.618267c-2.555331 13.89078-4.507604 27.888884-7.154927 41.749-2.596216 13.487038-13.374603 17.779994-24.771381 9.899353s-22.318262-16.190578-33.561719-24.173433c-8.529695-6.061245-16.660759-3.485472-20.401764 6.357664-4.768248 12.546676-9.255409 25.200676-14.182088 37.686024-5.519515 13.998104-16.97251 16.379673-27.321601 5.677946-9.357623-9.679594-18.352388-19.711825-27.597576-29.498743-7.211145-7.625108-15.628405-6.832956-21.153031 1.952273-6.076577 9.674484-12.030499 19.420517-18.061081 29.130775-12.418909 19.992911-22.430697 19.870255-34.982483-0.429296-6.010139-9.710258-11.95895-19.466513-18.05597-29.130775a12.025388 12.025388 0 0 0-20.478424-1.844949c-9.26052 9.781808-18.306392 19.762931-27.628241 29.4783-10.834604 11.299674-22.052508 9.015208-27.812224-5.683056-4.773359-12.183819-9.199192-24.505626-13.798788-36.750773-3.904546-10.349091-12.071384-12.981082-20.902609-6.674525-10.947039 7.819313-21.715204 15.89416-32.774677 23.544821-11.897622 8.238388-22.594238 4.08853-25.405103-10.03223-2.754647-13.844784-4.717141-27.842888-7.211144-41.743889a11.672753 11.672753 0 0 0-17.488687-9.25541c-11.667642 5.141326-23.243292 10.49219-34.864938 15.74084-17.636896 7.962412-27.00474 1.446317-26.197255-18.183736 0.511066-12.449573 1.114124-24.894036 1.395211-37.348721 0.214648-9.751144-6.383217-14.820921-16.057701-12.628446-13.430821 3.040844-26.825866 6.25034-40.272019 9.224745-13.752792 3.066397-22.486914-5.575733-19.420517-19.236533 2.92841-13.113959 6.168569-26.15637 9.158307-39.254997 2.637102-11.534765-2.289577-17.412026-14.412068-17.105387q-17.66756 0.449738-35.324898 1.277666c-19.517619 0.92503-26.222808-8.585913-18.280839-26.130816 5.258872-11.621646 10.635288-23.187075 15.776615-34.859828a11.800519 11.800519 0 0 0-9.240078-17.555125c-13.885669-2.555331-27.888884-4.47183-41.743889-7.154927-14.161645-2.744426-18.36261-13.379714-10.10889-25.256893C50.151184 678.825868 58.430457 667.786837 66.387758 656.54338a12.34736 12.34736 0 0 0-6.132795-19.798706c-12.521123-4.824465-25.149569-9.357623-37.665581-14.20253-14.65738-5.672835-17.079833-17.028727-5.887483-27.781561 8.979434-8.631909 18.204179-17.008284 27.290937-25.553311 10.732391-10.047562 9.924906-16.865186-2.836418-24.750938-10.56885-6.551869-21.250134-12.919754-31.686106-19.650496-12.654-8.151506-12.613115-19.824259 0.08177-27.939991 11.606314-7.415571 23.432387-14.488728 35.089808-21.83275a11.933396 11.933396 0 0 0 2.207806-19.788484c-9.970902-9.546717-20.258665-18.756131-30.204014-28.328401C5.826409 416.510903 7.98822 404.981249 21.843225 399.477066c12.470016-4.952232 25.129127-9.424061 37.680913-14.176977 10.114001-3.827886 12.536455-12.11227 6.132795-21.071261-7.420682-10.405308-15.010015-20.687961-22.389811-31.123934-9.526275-13.476817-5.545069-23.989449 10.456415-27.030293 12.546676-2.381569 25.226229-4.052755 37.818901-6.281003s16.159914-8.94877 10.967481-20.44265c-5.253761-11.621646-10.706838-23.156411-15.843053-34.834274-6.475209-14.754482 0.31175-24.531179 16.522771-23.969006 6.393439 0.219758 12.776656 0.674607 19.164984 1.022132v0.378189h20.197337c10.563739 0.051107 15.490417-6.051024 13.11396-16.522771-2.969295-13.103738-6.132795-26.16148-9.10209-39.270329-3.255492-14.381404 5.228208-22.875324 19.686271-19.660718 13.446153 2.984627 26.841198 6.168569 40.261798 9.26052a11.887401 11.887401 0 0 0 15.669291-12.19404c-0.296418-13.466595-1.103903-26.917858-1.492314-40.374233-0.480402-16.773194 9.352512-23.309731 24.827598-16.471664 11.969171 5.289535 23.785022 10.931707 35.738861 16.262127a11.892511 11.892511 0 0 0 18.13263-9.480278c2.478671-13.901001 4.430944-27.904216 7.231587-41.738779 2.759758-13.619915 13.287722-17.805547 24.802044-9.95557 11.396777 7.783539 22.405144 16.134361 33.648601 24.122326 8.458146 6.01525 16.640316 3.47525 20.350657-6.306558 4.645592-12.234926 9.015208-24.577175 13.752793-36.796768 5.948811-15.331987 17.187157-17.631785 28.389729-5.902815C436.399709 26.173848 445.057171 35.597909 453.791293 44.950421c8.151506 8.723901 16.292791 8.110621 22.435807-1.763178 6.899394-11.100359 13.619915-22.359148 20.698183-33.393068 8.407039-13.124181 20.003132-13.047521 28.430614 0.168652 7.40535 11.616535 14.483617 23.442608 21.853192 35.084697a11.95895 11.95895 0 0 0 19.221201 1.92672c9.551828-9.965792 18.761241-20.253555 28.297737-30.234678 10.834604-11.34056 22.164942-9.096979 27.924659 5.509294 4.5536 11.550097 8.851667 23.197296 13.236616 34.813831 5.079998 13.456374 12.030499 15.480196 23.92301 6.919837 9.827804-7.073157 19.568726-14.258748 29.462968-21.234802 12.935086-9.117422 23.570375-5.039113 26.463009 10.313317 2.366237 12.551787 4.08853 25.221118 6.291226 37.818901 2.289577 13.180398 9.035651 16.768083 20.994601 11.315006 11.299674-5.151548 22.517578-10.461526 33.858137-15.515971 15.367762-6.853398 25.134237-0.117545 24.531179 16.727198-0.511066 13.124181-1.022132 26.248362-1.338993 39.3521A11.851626 11.851626 0 0 0 815.830611 155.698474c11.136133-2.555331 22.486914-4.446276 33.301075-7.952191 21.398343-6.935169 31.79343 4.006759 25.251783 24.638503-3.439476 10.855047-5.396859 22.185385-7.967523 33.311297-2.366237 10.221325 2.69843 16.497218 13.34905 16.231464 13.124181-0.327082 26.243251-0.971026 39.3521-1.374769 16.170136-0.511066 22.83955 9.362733 16.318345 24.22965-5.396859 12.291143-11.125912 24.434076-16.543214 36.720109a11.810741 11.810741 0 0 0 9.015208 17.642006c13.885669 2.555331 27.883774 4.517825 41.74389 7.190702 14.222973 2.744426 18.526151 13.343939 10.308206 25.221119-7.844867 11.335449-16.144582 22.359148-24.122326 33.607715a12.301364 12.301364 0 0 0 5.928368 19.82937c12.224704 4.666035 24.577175 9.004987 36.796769 13.696575 16.354119 6.286115 18.372831 17.524461 5.442855 29.692948q-13.236615 12.459795-26.514116 24.888925c-9.710258 9.112311-8.851667 16.287681 2.70354 23.45283 10.855047 6.725632 21.848081 13.241726 32.539587 20.212669 12.597783 8.202613 12.485348 19.732267-0.224869 27.92977z m-278.72019 329.750153a30.152908 30.152908 0 0 0 30.694638-29.498743 30.551539 30.551539 0 0 0-29.227878-31.17504 30.929728 30.929728 0 0 0-31.410131 30.188682 30.546429 30.546429 0 0 0 29.943371 30.485101z m-448.445286-1.451428a30.372666 30.372666 0 0 0 29.851379-30.485101 30.331781 30.331781 0 1 0-60.653341 0.986358 30.290896 30.290896 0 0 0 30.801962 29.498743z m-46.696121-90.141862a9.95557 9.95557 0 0 0 11.371223 3.137947c17.642006-4.16519 35.447554-7.665993 53.207106-11.320117 18.945225-3.914767 32.02341 4.686477 36.137493 23.831018q6.357664 29.549849 12.459794 59.155916a14.064543 14.064543 0 0 0 8.953881 11.836294c99.182623 41.559906 198.401021 42.280509 297.880063 1.114125a12.004946 12.004946 0 0 0 8.299716-9.95046c4.08853-20.7544 8.509253-41.457693 13.328607-62.058772 4.354284-18.613032 17.51424-26.54478 36.198821-22.594238 8.87211 1.880724 17.677781 4.175411 26.62144 5.55529 12.020278 1.85517 24.980917 10.870379 35.539546 5.044223s17.422248-18.29106 25.701521-28.021761c1.844949-2.172031 5.493962-4.32362 4.252071-7.430903-1.614969-4.037423-5.969254-1.947162-9.045873-1.957384-46.445699-0.127767-92.901619-0.357746-139.342208 0.081771a45.730206 45.730206 0 0 1-33.587272-13.456374 107.773647 107.773647 0 0 1-30.720191-55.583563c-5.335531-23.580596-8.458146-47.68759-15.797058-70.772452-8.754565-27.520917-29.278984-43.742159-56.120182-44.186786-30.285785-0.511066-60.586902 0-90.877798-0.281087-5.330421-0.045996-6.853398 1.471871-6.761406 6.78696 0.321972 17.836211 0.511066 35.697976-0.071549 53.518856-0.255533 7.56378 2.555331 8.631909 9.168528 8.529695 24.566954-0.373078 49.149239 0.270865 73.705972-0.362857 9.383176-0.240201 12.822652 1.890945 12.592672 12.020278q-1.022132 45.428677 0 90.888018c0.219758 10.001566-2.08004 13.04241-12.628447 12.991304-95.569385-0.449738-191.179656-0.265754-286.774594-0.265755h-11.514322a398.498783 398.498783 0 0 0 27.822446 33.750814zM426.326594 436.784901c-0.183984 6.608086 2.141368 7.665993 8.018629 7.589333 19.512509-0.337304 39.030128-0.127767 58.547747-0.127766v-0.137988c18.505708 0 37.016527 0.245312 55.517125-0.086881a70.787784 70.787784 0 0 0 34.80361-8.831225 27.694679 27.694679 0 0 0 5.110662-46.507027 56.953221 56.953221 0 0 0-38.718377-14.749371c-38.329967-0.367968-76.716152 0.056217-115.071673-0.296419-6.976054-0.066439-8.294605 2.31513-8.177059 8.63702 0.398632 18.153073 0.480402 36.34192-0.030664 54.510324zM148.705196 365.823355a31.031942 31.031942 0 0 0-31.134155 30.556649 30.331781 30.331781 0 0 0 30.331781 30.050695 29.718501 29.718501 0 0 0 30.290895-29.779829 30.280674 30.280674 0 0 0-29.488521-30.827515z m57.239417 5.585953c4.139636 9.362733 7.952191 17.846433 11.652311 26.381239 8.575691 19.778263 3.219717 33.474838-16.691424 42.444051-18.045749 8.131064-36.152825 16.119029-54.229237 24.178543a9.142975 9.142975 0 0 0-7.379797 8.085068 382.114 382.114 0 0 0 10.936818 131.098709 6.904505 6.904505 0 0 0 7.901084 6.505874c31.307917-0.31175 62.620945-0.265754 93.928862-0.040886 5.182212 0.035775 6.970943-1.23167 6.776738-6.643861-0.419074-11.432552-0.127767-22.890656-0.127766-34.34365q0-94.45015-0.086881-188.905411c0-3.613238 2.672876-9.096979-5.335532-8.882331-15.418868 0.419074-30.837736 0.122656-47.360508 0.122655z m304.171289-280.938217A28.445946 28.445946 0 0 0 480.571163 119.412771a29.963813 29.963813 0 0 0 29.641842 30.47999 28.267073 28.267073 0 0 0 29.519185-28.880352 29.902485 29.902485 0 0 0-29.616288-30.541318z m320.734945 223.78057q-85.981783-137.476816-244.095453-172.673947a12.050942 12.050942 0 0 0-12.413799 3.930099q-21.975848 21.572106-44.462762 42.653588c-14.422289 13.609694-29.539628 13.287722-43.358859-0.960805C473.176035 173.432472 459.872981 159.597909 446.840792 145.477149a11.315006 11.315006 0 0 0-12.357581-3.70523 382.962369 382.962369 0 0 0-90.014096 31.512344 369.689979 369.689979 0 0 0-111.19779 85.020978h386.953797a159.401557 159.401557 0 0 1 95.99868 31.394798c24.388081 17.74422 42.28562 40.410007 49.190125 70.363599 8.601245 37.307835-4.47694 67.971809-30.09669 94.547253a259.386555 259.386555 0 0 1-43.241314 34.558298c43.353748 40.43045 43.348638 40.43045 59.963401 101.564192a17.74933 17.74933 0 0 0 5.519515 9.439394c16.057701 13.241726 34.118782 14.601162 53.191773 8.437703 16.890739-5.453077 25.108684-18.071302 27.939991-34.951819a165.191938 165.191938 0 0 0 1.359436-30.224457 7.02205 7.02205 0 0 1 8.453036-8.33549c9.081647 0.260644 18.204179-0.332193 27.260273 0.204426 5.984586 0.357746 8.17706-1.292998 8.483699-7.533116a448.123314 448.123314 0 0 0-0.84837-49.435437 10.926596 10.926596 0 0 0-7.538227-11.161686c-19.154762-8.085068-38.099988-16.676091-57.080987-25.170012-20.406875-9.132754-25.778181-22.778222-16.906071-43.077773 9.812472-22.440918 19.558505-44.917611 29.78494-67.169434a16.195689 16.195689 0 0 0-0.807485-17.504019z m41.105057 52.409842a30.469769 30.469769 0 0 0-30.975724 30.459548 30.899064 30.899064 0 0 0 30.418662 30.198903 30.316449 30.316449 0 0 0 30.188682-30.152908 29.922928 29.922928 0 0 0-29.63162-30.505543z" fill="#37BEF0" p-id="9525"></path></svg>