<?xml version="1.0" standalone="no"?><!DOCTYPE svg PUBLIC "-//W3C//DTD SVG 1.1//EN" "http://www.w3.org/Graphics/SVG/1.1/DTD/svg11.dtd"><svg t="1688987894711" class="icon" viewBox="0 0 1024 1024" version="1.1" xmlns="http://www.w3.org/2000/svg" p-id="14381" xmlns:xlink="http://www.w3.org/1999/xlink" width="200" height="200"><path d="M715.498667 514.858667l-400.938667-145.962667a117.546667 117.546667 0 0 0-150.378667 70.144L142.293333 499.178667c-62.378667 171.328 26.282667 361.450667 197.632 423.808 37.205333 13.546667 75.264 19.968 112.746667 19.968 135.125333 0 262.250667-83.456 311.061333-217.578667l21.909334-60.138667a117.525333 117.525333 0 0 0-70.144-150.378666zM364.096 153.408a42.666667 42.666667 0 0 1-0.128 85.290667 42.026667 42.026667 0 0 1-27.349333-9.984 42.304 42.304 0 0 1-15.061334-28.949334 42.602667 42.602667 0 0 1 42.538667-46.357333m-0.021333-64a106.624 106.624 0 1 0-0.128 213.290667 106.624 106.624 0 1 0 0.128-213.290667zM785.066667 306.645333c7.04 0 17.514667 1.728 27.349333 9.984 8.725333 7.317333 14.08 17.6 15.061333 28.949334a42.602667 42.602667 0 0 1-69.888 36.373333 42.304 42.304 0 0 1-15.061333-28.949333 42.602667 42.602667 0 0 1 42.538667-46.357334m0-64a106.624 106.624 0 1 0-0.106667 213.290667 106.624 106.624 0 1 0 0.106667-213.290667z" p-id="14382"></path></svg>