<?xml version="1.0" standalone="no"?><!DOCTYPE svg PUBLIC "-//W3C//DTD SVG 1.1//EN" "http://www.w3.org/Graphics/SVG/1.1/DTD/svg11.dtd"><svg t="1688988085547" class="icon" viewBox="0 0 1024 1024" version="1.1" xmlns="http://www.w3.org/2000/svg" p-id="17131" xmlns:xlink="http://www.w3.org/1999/xlink" width="200" height="200"><path d="M32 710.784c0-201.344 0-402.688 0-603.968 0.32-1.472 0.768-3.008 1.024-4.544C37.76 74.176 52.544 53.12 78.144 40.64c8.96-4.352 19.264-6.016 28.864-8.896 270.08 0 540.16 0 810.24 0 1.472 0.384 3.008 0.832 4.48 1.088 19.072 3.008 35.264 11.456 48.32 25.6C985.6 75.264 992 95.424 992 118.016 992 309.76 992 501.504 992 693.312c0 5.632-0.192 11.264-0.512 16.896-2.176 40.256-37.312 75.008-77.568 75.392-63.616 0.64-127.168 0.256-190.784 0.256-3.776 0-6.336 1.024-9.024 3.648-65.856 66.112-131.904 132.032-197.888 198.016-1.344 1.28-2.624 2.496-5.056 4.864-1.216-1.728-2.048-3.52-3.328-4.864-65.728-65.728-131.52-131.52-197.184-197.376-3.136-3.136-6.272-4.224-10.624-4.224-62.784 0.128-125.632 0.256-188.416-0.128-33.152-0.256-62.848-22.144-74.048-53.248C35.008 725.376 33.856 718.016 32 710.784zM306.368 683.392c20.928 0 41.856-0.128 62.784 0.128 4.48 0 6.144-0.896 6.144-5.888C375.04 635.648 375.04 593.664 375.232 551.616c0-4.352-1.024-5.888-5.632-5.888C327.424 545.92 285.248 545.92 243.008 545.792c-4.032 0-5.632 0.832-5.632 5.312 0.192 42.432 0.192 84.672 0 127.04 0 4.608 1.536 5.376 5.632 5.376C264.128 683.264 285.248 683.392 306.368 683.392zM237.76 271.616c46.016 0 91.392 0 137.088 0 0-45.632 0-91.008 0-136.704-45.76 0-91.264 0-137.088 0C237.76 180.608 237.76 225.92 237.76 271.616zM374.848 340.48c-46.016 0-91.392 0-136.896 0 0 45.76 0 91.264 0 136.768 45.824 0 91.2 0 136.896 0C374.848 431.552 374.848 386.176 374.848 340.48zM580.48 546.304c-45.76 0-91.264 0-136.768 0 0 45.824 0 91.2 0 136.704 45.76 0 91.264 0 136.768 0C580.48 637.184 580.48 591.808 580.48 546.304zM649.344 683.136c1.728 0.128 3.264 0.256 4.8 0.256 42.304 0 84.608 0 126.912 0.128 4.48 0 5.376-1.344 5.376-5.632-0.128-42.112-0.064-84.224-0.064-126.464 0-1.6 0-3.328 0-5.12-46.144 0-91.584 0-137.088 0C649.344 592 649.344 637.504 649.344 683.136zM443.712 271.552c45.952 0 91.328 0 136.704 0 0-45.76 0-91.136 0-136.704-45.696 0-91.072 0-136.704 0C443.712 180.544 443.712 225.92 443.712 271.552zM786.112 134.976c-45.76 0-91.264 0-136.704 0 0 45.76 0 91.2 0 136.64 45.696 0 91.136 0 136.704 0C786.112 225.92 786.112 180.544 786.112 134.976zM443.712 340.416c0 45.888 0 91.264 0 136.896 45.696 0 91.136 0 136.64 0 0-45.824 0-91.328 0-136.896C534.72 340.416 489.408 340.416 443.712 340.416zM786.24 340.672c-46.016 0-91.52 0-136.832 0 0 45.824 0 91.2 0 136.512 45.824 0 91.2 0 136.832 0C786.24 431.552 786.24 386.24 786.24 340.672z"  p-id="17132"></path></svg>